<svg width="19" height="25" viewBox="0 0 19 25" fill="none" xmlns="http://www.w3.org/2000/svg">
<path d="M8.18192 1.93993C7.6624 2.12521 7.23611 2.50662 6.99442 3.00243L6.90614 3.00008C6.50045 2.99966 6.10274 3.11287 5.7581 3.32689C5.41345 3.54092 5.13564 3.84719 4.95614 4.21102C4.47726 4.37669 4.0717 4.70516 3.81015 5.13917C3.5486 5.57318 3.44765 6.08521 3.52489 6.58602C3.37697 6.74331 3.25458 6.91987 3.1577 7.11571C2.76137 7.25162 2.41302 7.49967 2.15494 7.82973C1.89685 8.15979 1.74013 8.55767 1.7038 8.97508C1.406 9.23778 1.17908 9.57117 1.04392 9.94457C0.908764 10.318 0.869711 10.7194 0.930359 11.1118L0.93114 11.1141L2.75145 22.6384C2.82327 23.0836 3.05123 23.4887 3.3945 23.7811C3.73777 24.0736 4.17393 24.2343 4.62489 24.2345H14.703C15.6327 24.2345 16.4296 23.5587 16.5765 22.6384L18.3968 11.1181V11.1157C18.4467 10.8107 18.4358 10.4989 18.3647 10.1982C18.2937 9.89745 18.1638 9.61373 17.9827 9.36336C17.989 9.2967 17.9921 9.23029 17.9921 9.16414C17.9927 8.71316 17.8522 8.27328 17.5902 7.9062C17.3282 7.53912 16.9578 7.26325 16.5311 7.11727C16.4357 6.92299 16.312 6.74396 16.164 6.58602C16.1796 6.47873 16.1877 6.36935 16.1882 6.25789C16.1887 5.80681 16.0481 5.36686 15.7859 4.99977C15.5238 4.63268 15.1533 4.35687 14.7265 4.21102C14.5758 3.90381 14.3544 3.63671 14.0805 3.43164C13.8065 3.22657 13.4879 3.08938 13.1507 3.03133C13.0314 2.77993 12.8635 2.55462 12.6568 2.36838C12.45 2.18214 12.2084 2.03865 11.946 1.94618C11.7717 1.59652 11.5035 1.30229 11.1714 1.09642C10.8394 0.890552 10.4566 0.781169 10.0659 0.78052C9.67519 0.779872 9.29203 0.887983 8.9593 1.09275C8.62656 1.29752 8.35739 1.59085 8.18192 1.93993ZM16.0702 9.16414C15.6655 9.16414 15.296 9.31571 15.0155 9.56649C14.824 9.20883 14.539 8.90985 14.1909 8.70142C13.8428 8.49298 13.4447 8.38289 13.039 8.38289C12.62 8.38273 12.2095 8.50036 11.8542 8.72236C11.4989 8.94435 11.2131 9.26176 11.0296 9.63836C10.8506 9.45138 10.6356 9.30262 10.3976 9.20109C10.1595 9.09956 9.90334 9.04737 9.64453 9.04766C9.38573 9.04795 9.12967 9.10073 8.89184 9.20279C8.654 9.30486 8.43934 9.4541 8.26083 9.64149C8.04784 9.2038 7.6982 8.84731 7.26473 8.62586L7.46786 8.53993C7.49234 8.52951 7.51708 8.52039 7.54208 8.51258C7.81239 8.42664 8.01552 8.21571 8.10848 7.96336L8.11161 7.95555L8.11395 7.94774C8.24364 7.54149 8.61317 7.25789 9.05458 7.25789C9.26879 7.257 9.47754 7.32547 9.64962 7.45305C9.8217 7.58063 9.94787 7.76048 10.0093 7.96571L10.164 8.38368L10.5577 8.17586C10.6354 8.13488 10.7182 8.10415 10.8038 8.08446C10.9195 8.05851 11.027 8.00435 11.1167 7.92679C11.2064 7.84923 11.2755 7.75068 11.3179 7.63993L11.3202 7.63446L11.3218 7.62821C11.3905 7.43507 11.5174 7.26798 11.685 7.14991C11.8526 7.03184 12.0527 6.96858 12.2577 6.96883C12.6249 6.96883 12.9475 7.16727 13.1186 7.46414L13.4225 7.99227L13.7757 7.49539C13.8676 7.36618 13.9891 7.26088 14.13 7.18829C14.271 7.1157 14.4273 7.07796 14.5858 7.07821C15.0186 7.07821 15.3882 7.35321 15.5218 7.73758L15.5225 7.74071C15.5628 7.85429 15.6316 7.95562 15.7223 8.03497C15.813 8.11432 15.9226 8.16902 16.0405 8.19383C16.2923 8.24894 16.5127 8.39986 16.6552 8.61465C16.7977 8.82944 16.851 9.09123 16.8038 9.34461C16.5777 9.22536 16.3258 9.16339 16.0702 9.16414ZM14.4921 10.6173L13.4765 23.4532H11.078L11.5858 10.5626C11.6044 10.1883 11.7666 9.83551 12.0385 9.57763C12.3105 9.31976 12.6714 9.1766 13.0461 9.17791C13.4209 9.17921 13.7808 9.32489 14.0509 9.58465C14.3211 9.84442 14.4808 10.1983 14.4968 10.5727L14.4921 10.6173ZM7.16239 8.57743C6.65054 8.34808 6.07111 8.31985 5.53939 8.49834C5.00768 8.67684 4.56265 9.04897 4.29286 9.54071C4.09937 9.3755 3.86881 9.25953 3.62082 9.20266C3.37283 9.1458 3.11478 9.14974 2.86864 9.21414L2.86708 9.16414C2.86708 8.68758 3.20458 8.28914 3.64442 8.19461C3.76078 8.16906 3.86896 8.11499 3.95924 8.03726C4.04952 7.95953 4.11906 7.86057 4.16161 7.7493L4.16395 7.74383L4.16552 7.73758C4.23428 7.54445 4.36119 7.37736 4.52879 7.25928C4.69638 7.14121 4.89644 7.07795 5.10145 7.07821C5.5413 7.07821 5.90302 7.35164 6.03739 7.73758L6.03817 7.74071C6.07844 7.85429 6.14723 7.95562 6.23793 8.03497C6.32863 8.11432 6.43821 8.16902 6.55614 8.19383C6.73951 8.23543 6.90774 8.32711 7.04208 8.45868L7.16239 8.57743ZM4.81083 10.4266C4.85638 10.0773 5.02757 9.75649 5.2924 9.52415C5.55723 9.29182 5.89759 9.16384 6.24989 9.16414C7.03114 9.16414 7.67177 9.78133 7.70302 10.5626L8.21864 23.4532H5.85145L4.83583 10.6173C4.83167 10.5533 4.8228 10.4896 4.81083 10.4266ZM8.6827 3.01336C8.79726 2.98968 8.90365 2.9365 8.99134 2.85908C9.07904 2.78166 9.145 2.68269 9.1827 2.57196C9.24812 2.39102 9.36762 2.23458 9.525 2.12389C9.68237 2.0132 9.86999 1.95361 10.0624 1.95321C10.4702 1.95321 10.8163 2.21102 10.9429 2.57977L10.9468 2.59227L10.9515 2.60321C11.0421 2.81961 11.2335 2.97039 11.4515 3.02118H11.453C11.5905 3.05276 11.7191 3.11497 11.8292 3.20316C11.9393 3.29136 12.0281 3.40327 12.089 3.53055C12.0388 3.55142 11.9898 3.57489 11.9421 3.60086C11.7327 3.42941 11.4858 3.30982 11.2214 3.25183C10.9571 3.19384 10.6828 3.1991 10.4209 3.26717C10.1589 3.33524 9.91677 3.46421 9.7141 3.64356C9.51144 3.82291 9.35399 4.04759 9.25458 4.2993C9.04838 4.35155 8.85368 4.44161 8.68036 4.56493C8.64223 4.55303 8.60366 4.54261 8.56473 4.53368C8.4459 4.21953 8.23992 3.94581 7.97098 3.74461C8.04286 3.38055 8.32177 3.09383 8.6788 3.01414L8.6827 3.01336ZM9.4538 5.05477C9.57179 5.03384 9.68204 4.98173 9.77312 4.90384C9.86419 4.82595 9.93278 4.72512 9.97177 4.6118C10.0284 4.45497 10.1259 4.31611 10.2542 4.20951C10.3824 4.10291 10.5367 4.03245 10.7013 4.00539C10.8658 3.97832 11.0346 3.99563 11.1902 4.05554C11.3459 4.11544 11.4827 4.21577 11.5866 4.34618L11.835 4.66024L12.1436 4.40243C12.3227 4.25297 12.5487 4.17137 12.7819 4.17196C13.2147 4.17196 13.5843 4.44696 13.7179 4.83133L13.7186 4.83446C13.7589 4.94804 13.8277 5.04937 13.9184 5.12872C14.0091 5.20807 14.1187 5.26277 14.2366 5.28758C14.4731 5.33934 14.6825 5.47577 14.8254 5.67118C14.9682 5.86658 15.0348 6.10748 15.0124 6.34852C14.7496 6.28391 14.4756 6.28001 14.2111 6.33714C13.9465 6.39426 13.6985 6.51091 13.4858 6.67821C13.1554 6.36281 12.716 6.18706 12.2593 6.18758C11.5038 6.18758 10.853 6.65868 10.5999 7.32977L10.5772 7.33602C10.4194 7.07355 10.1962 6.85644 9.92951 6.70584C9.66281 6.55523 9.36165 6.47627 9.05536 6.47664C8.2663 6.47664 7.60692 6.98446 7.37411 7.69852L7.3663 7.71414C7.18334 7.5856 6.978 7.49234 6.76083 7.43914C6.6337 7.10228 6.40661 6.81233 6.11002 6.60818C5.81343 6.40403 5.46151 6.29543 5.10145 6.29696C4.9551 6.29696 4.81317 6.31414 4.67567 6.34852C4.65301 6.10846 4.71855 5.86837 4.86003 5.67312C5.00151 5.47787 5.20925 5.34082 5.44442 5.28758C5.56414 5.26379 5.67537 5.20855 5.76667 5.12754C5.85798 5.04653 5.92607 4.94268 5.96395 4.82664C6.03483 4.63402 6.16326 4.46786 6.33182 4.35074C6.50037 4.23362 6.70089 4.1712 6.90614 4.17196C7.33895 4.17196 7.70848 4.44696 7.84208 4.83133L7.84286 4.83446C7.88313 4.94804 7.95191 5.04937 8.04262 5.12872C8.13332 5.20807 8.2429 5.26277 8.36083 5.28758C8.43895 5.30529 8.51239 5.33107 8.58114 5.36493L8.82802 5.48446L9.02489 5.29305C9.14364 5.17743 9.2913 5.09383 9.45302 5.05477" fill="#E79951"/>
</svg>
