<svg width="25" height="25" viewBox="0 0 25 25" fill="none" xmlns="http://www.w3.org/2000/svg">
<path fill-rule="evenodd" clip-rule="evenodd" d="M5.67346 7.17508C5.66565 7.19071 5.64013 7.248 5.63701 7.38029C5.59763 9.1781 5.58096 10.9763 5.58701 12.7746C5.58909 15.111 5.61513 16.6912 5.63701 17.6199C5.64013 17.7516 5.66565 17.8095 5.67346 17.8251C5.67971 17.8376 5.68544 17.8459 5.70471 17.8595C5.76565 17.9011 5.93805 17.9688 6.28544 17.9688C6.63232 17.9688 6.80471 17.9011 6.86513 17.8595C6.87879 17.8514 6.88969 17.8394 6.89638 17.8251C6.90471 17.8095 6.93023 17.7522 6.93284 17.6199C6.95628 16.6553 6.98336 14.9881 6.98336 12.5001C6.98336 10.0121 6.95628 8.34487 6.93336 7.38029C6.93023 7.24852 6.90471 7.19071 6.8969 7.17508C6.89021 7.16072 6.87931 7.14873 6.86565 7.14071C6.80471 7.09904 6.63232 7.03133 6.28544 7.03133C5.93857 7.03133 5.76565 7.09904 5.70524 7.14071C5.69138 7.14865 5.68029 7.16065 5.67346 7.17508ZM3.55003 17.4761L3.55419 17.6699C3.57398 18.4824 3.9094 19.1537 4.52607 19.5766C5.08128 19.9579 5.74117 20.0522 6.28544 20.0522C6.82971 20.0522 7.48909 19.9579 8.0443 19.5766C8.66096 19.1537 8.99638 18.4829 9.01565 17.6694C9.03023 17.0641 9.04638 16.1928 9.0568 15.0272C11.3525 15.0374 13.6481 15.0357 15.9438 15.022C15.9542 16.1902 15.9698 17.0636 15.9844 17.6699C16.0037 18.4824 16.3396 19.1537 16.9558 19.5766C17.511 19.9579 18.1709 20.0522 18.7151 20.0522C19.2594 20.0522 19.9188 19.9579 20.474 19.5766C21.0907 19.1537 21.4261 18.4829 21.4459 17.6694L21.45 17.4761C21.6139 17.5046 21.7794 17.5188 21.9464 17.5188C22.5792 17.5188 23.2058 17.3167 23.6875 16.873C24.1766 16.422 24.4354 15.7954 24.4516 15.1089C24.4667 14.4917 24.4797 13.6319 24.4797 12.4996C24.4797 11.3683 24.4667 10.5079 24.4516 9.89071C24.4349 9.20425 24.1766 8.57821 23.6875 8.12664C23.2058 7.68289 22.5792 7.48081 21.9464 7.48081C21.779 7.48081 21.6136 7.49505 21.45 7.52352L21.4459 7.33081C21.4261 6.51779 21.0907 5.84644 20.474 5.42352C19.9188 5.04227 19.2589 4.948 18.7151 4.948C18.1709 4.948 17.511 5.04227 16.9558 5.42352C16.3396 5.84644 16.0037 6.51727 15.9844 7.33029C15.9642 8.21299 15.9507 9.09583 15.9438 9.97873C13.648 9.96428 11.3521 9.96254 9.05628 9.97352C9.04955 9.09235 9.03601 8.21125 9.01565 7.33029C8.99638 6.51779 8.66096 5.84644 8.0443 5.42352C7.48909 5.04227 6.82919 4.948 6.28492 4.948C5.74065 4.948 5.08128 5.04227 4.52607 5.42352C3.9094 5.84644 3.57398 6.51727 3.55419 7.33029L3.55003 7.52352C3.3863 7.49493 3.2204 7.48064 3.05419 7.48081C2.42086 7.48081 1.79482 7.68289 1.31305 8.12664C0.823464 8.57769 0.565131 9.20477 0.548464 9.89071C0.528837 10.7604 0.519635 11.6302 0.52086 12.5001C0.52086 13.6319 0.533881 14.4917 0.548464 15.1089C0.565131 15.7954 0.823985 16.422 1.31305 16.873C1.79482 17.3167 2.42086 17.5188 3.05419 17.5188C3.22121 17.5188 3.38648 17.5046 3.55003 17.4761ZM3.50315 12.2261V12.7735C3.50287 13.5352 3.49419 14.2969 3.47711 15.0584C3.4719 15.2433 3.41305 15.3136 3.38336 15.3412C3.34482 15.3761 3.25003 15.4355 3.05419 15.4355C2.85784 15.4355 2.76253 15.3761 2.72503 15.3412C2.69482 15.3131 2.63596 15.2433 2.63128 15.0584C2.61669 14.4595 2.60419 13.6157 2.60419 12.5001C2.60419 11.3845 2.61669 10.5407 2.63128 9.94123C2.63596 9.75685 2.69482 9.68654 2.72503 9.65842C2.76305 9.62352 2.85784 9.56467 3.05419 9.56467C3.25003 9.56467 3.34482 9.62352 3.38284 9.65842C3.41305 9.68654 3.47242 9.75685 3.47659 9.94123C3.49013 10.4907 3.50159 11.2449 3.50367 12.2266M21.4974 12.5001V12.6355C21.4979 13.6845 21.5104 14.4834 21.5245 15.0584C21.5287 15.2433 21.5875 15.3136 21.6183 15.3412C21.6558 15.3761 21.7511 15.4355 21.9469 15.4355C22.1427 15.4355 22.238 15.3761 22.2761 15.3412C22.3063 15.3131 22.3651 15.2433 22.3698 15.0584C22.3839 14.4595 22.3969 13.6157 22.3969 12.5001C22.3969 11.3845 22.3839 10.5407 22.3698 9.94123C22.3651 9.75685 22.3063 9.68654 22.2761 9.65842C22.238 9.62352 22.1427 9.56467 21.9469 9.56467C21.7511 9.56467 21.6558 9.62352 21.6183 9.65842C21.5875 9.68654 21.5287 9.75685 21.5245 9.94123C21.5104 10.5162 21.4985 11.3152 21.4974 12.3647V12.5001ZM19.3636 7.38029C19.386 8.32716 19.413 9.95112 19.4141 12.3641V12.636C19.4164 14.2974 19.3996 15.9588 19.3636 17.6199C19.3604 17.7516 19.3354 17.8095 19.3271 17.8251C19.3202 17.8393 19.3093 17.8512 19.2959 17.8595C19.2349 17.9011 19.063 17.9688 18.7156 17.9688C18.3683 17.9688 18.1959 17.9011 18.1354 17.8595C18.122 17.8512 18.1111 17.8393 18.1042 17.8251C18.0959 17.8095 18.0709 17.7522 18.0677 17.6199C18.0309 15.9135 18.014 14.2068 18.0172 12.5001C18.0172 10.0121 18.0443 8.34487 18.0677 7.38029C18.0709 7.24852 18.0959 7.19071 18.1042 7.17508C18.1111 7.16089 18.122 7.14897 18.1354 7.14071C18.1959 7.09904 18.3683 7.03133 18.7156 7.03133C19.063 7.03133 19.2349 7.09904 19.2953 7.14071C19.309 7.14889 19.32 7.16082 19.3271 7.17508C19.3354 7.19071 19.3604 7.248 19.3636 7.38029Z" fill="#316D69"/>
</svg>
