<svg width="25" height="25" viewBox="0 0 25 25" fill="none" xmlns="http://www.w3.org/2000/svg">
<path d="M5.20833 12.5C4.6558 12.5 4.12589 12.2805 3.73519 11.8898C3.34449 11.4991 3.125 10.9692 3.125 10.4167C3.125 8.4828 4.11272 6.62813 5.87087 5.26068C7.62903 3.89323 10.0136 3.125 12.5 3.125C14.9864 3.125 17.371 3.89323 19.1291 5.26068C20.8873 6.62813 21.875 8.4828 21.875 10.4167C21.875 10.9692 21.6555 11.4991 21.2648 11.8898C20.8741 12.2805 20.3442 12.5 19.7917 12.5L16.1458 16.7708C15.3125 17.8125 13.6458 17.9167 12.6042 17.0833L7.29167 12.5" stroke="#FFA500" stroke-width="2" stroke-linecap="round" stroke-linejoin="round"/>
<path d="M12.1874 16.6667H4.16659C3.61405 16.6667 3.08415 16.4472 2.69345 16.0565C2.30275 15.6658 2.08325 15.1359 2.08325 14.5833C2.08325 14.0308 2.30275 13.5009 2.69345 13.1102C3.08415 12.7195 3.61405 12.5 4.16659 12.5H20.8333C21.3858 12.5 21.9157 12.7195 22.3064 13.1102C22.6971 13.5009 22.9166 14.0308 22.9166 14.5833C22.9166 15.1359 22.6971 15.6658 22.3064 16.0565C21.9157 16.4472 21.3858 16.6667 20.8333 16.6667H16.3541M5.20825 16.6667C4.65572 16.6667 4.12581 16.8862 3.73511 17.2769C3.34441 17.6676 3.12492 18.1975 3.12492 18.75C3.12492 20.5208 4.47909 21.875 6.24992 21.875H18.7499C20.5208 21.875 21.8749 20.5208 21.8749 18.75C21.8749 18.1975 21.6554 17.6676 21.2647 17.2769C20.874 16.8862 20.3441 16.6667 19.7916 16.6667" stroke="#FFA500" stroke-width="2" stroke-linecap="round" stroke-linejoin="round"/>
</svg>
