<svg width="21" height="13" viewBox="0 0 21 13" fill="none" xmlns="http://www.w3.org/2000/svg">
<path d="M20.5449 3.38086C20.4856 3.30456 20.4096 3.24282 20.3228 3.20036C20.236 3.1579 20.1406 3.13584 20.0439 3.13586H4.13426C4.11968 3.13634 4.1051 3.1378 4.09051 3.14023L3.47801 1.07232C3.44378 0.934689 3.36442 0.812502 3.2526 0.725268C3.14078 0.638034 3.00296 0.590785 2.86114 0.591066H0.95218C0.787177 0.596653 0.6308 0.666128 0.516051 0.784828C0.401302 0.903528 0.337158 1.06217 0.337158 1.22726C0.337158 1.39236 0.401302 1.551 0.516051 1.6697C0.6308 1.7884 0.787177 1.85788 0.95218 1.86346H2.36385L5.42562 12.1994C5.45974 12.3373 5.53915 12.4597 5.65113 12.5471C5.76311 12.6345 5.90118 12.6818 6.04322 12.6814H17.4984C17.6307 12.6794 17.7593 12.6375 17.8674 12.5611C17.9905 12.4736 18.0784 12.3451 18.1153 12.1987L20.6601 3.92628C20.6836 3.83254 20.6854 3.73467 20.6653 3.64015C20.6452 3.54562 20.6045 3.45693 20.5449 3.38086ZM16.5432 4.40898V6.31794H14.6343V4.40898H16.5432ZM17.1791 10.9372V9.50003H17.6311L17.1791 10.9372ZM17.1791 8.86346V6.9545H18.4288L17.8302 8.86346H17.1791ZM16.5432 8.86346H14.6343V6.9545H16.544L16.5432 8.86346ZM5.22072 6.9545H6.36114V8.86346H5.78583L5.22072 6.9545ZM6.9977 6.9545H8.90666V8.86346H6.9977V6.9545ZM9.54249 6.9545H11.4522V8.86346H9.54322L9.54249 6.9545ZM12.0887 6.9545H13.9977V8.86346H12.0895L12.0887 6.9545ZM13.9977 4.40898V6.31794H12.0895V4.40898H13.9977ZM11.4522 4.40898V6.31794H9.54322V4.40898H11.4522ZM8.90666 4.40898V6.31794H6.9977V4.40898H8.90666ZM6.36114 4.40898V6.31794H5.03187L4.46676 4.40898H6.36114ZM5.97468 9.4993H6.36114V10.8052L5.97468 9.4993ZM6.9977 11.4083V9.50003H8.90666V11.4097L6.9977 11.4083ZM9.54249 11.4083V9.50003H11.4522V11.4097L9.54249 11.4083ZM12.0887 11.4083V9.50003H13.9977V11.4097L12.0887 11.4083ZM14.6335 11.4083V9.50003H16.5432V11.4097L14.6335 11.4083ZM18.6294 6.31794H17.1791V4.40898H19.228L18.6294 6.31794Z" fill="#2E3ECD"/>
</svg>
