<svg width="25" height="25" viewBox="0 0 25 25" fill="none" xmlns="http://www.w3.org/2000/svg">
<path d="M3.125 12.4905C3.125 18.3635 7.54063 21.2145 10.3115 22.4239C11.0625 22.752 11.4385 22.9166 12.5 22.9166V8.33325L3.125 11.4583V12.4905Z" fill="#00008B"/>
<path opacity="0.5" d="M14.6885 22.4239C17.4594 21.2135 21.875 18.3645 21.875 12.4905V11.4583L12.5 8.33325V22.9166C13.5625 22.9166 13.9375 22.752 14.6885 22.4239ZM9.20625 2.92179L8.60938 3.12492C5.47708 4.19784 3.91146 4.73429 3.51875 5.29367C3.125 5.85409 3.125 7.52075 3.125 10.851V11.4583L12.5 8.33325V2.08325C11.6552 2.08325 10.8385 2.36242 9.20625 2.92179Z" fill="#00CCFF"/>
<path d="M16.3906 3.12492L15.7937 2.92179C14.1615 2.36242 13.3458 2.08325 12.5 2.08325V8.33325L21.875 11.4583V10.851C21.875 7.51971 21.875 5.85408 21.4812 5.29367C21.0885 4.73429 19.5229 4.19679 16.3906 3.12492Z" fill="#00008B"/>
</svg>
