<svg width="35" height="35" viewBox="0 0 35 35" fill="none" xmlns="http://www.w3.org/2000/svg">
<g clip-path="url(#clip0_1_450)">
<path d="M17.4985 35C27.1636 35 34.9985 27.1644 34.9985 17.5C34.9985 7.83417 27.1636 0 17.4985 0C7.83343 0 -0.00146484 7.8349 -0.00146484 17.5C-0.00146484 27.1644 7.83343 35 17.4985 35Z" fill="#DEEEFF"/>
<path d="M13.6806 27.6813C14.0182 27.6813 14.3421 27.5471 14.5808 27.3084C14.8196 27.0696 14.9537 26.7458 14.9537 26.4081C14.9537 26.0705 14.8196 25.7467 14.5808 25.5079C14.3421 25.2691 14.0182 25.135 13.6806 25.135C13.3429 25.135 13.0191 25.2691 12.7804 25.5079C12.5416 25.7467 12.4075 26.0705 12.4075 26.4081C12.4075 26.7458 12.5416 27.0696 12.7804 27.3084C13.0191 27.5471 13.3429 27.6813 13.6806 27.6813ZM22.5896 27.6813C22.7593 27.6853 22.9281 27.6554 23.086 27.5933C23.244 27.5311 23.388 27.438 23.5094 27.3194C23.6309 27.2009 23.7274 27.0592 23.7933 26.9027C23.8592 26.7463 23.8931 26.5783 23.8931 26.4085C23.8931 26.2387 23.8592 26.0707 23.7933 25.9143C23.7274 25.7578 23.6309 25.6161 23.5094 25.4976C23.388 25.379 23.244 25.2859 23.086 25.2237C22.9281 25.1616 22.7593 25.1317 22.5896 25.1357C22.2595 25.1469 21.9468 25.2859 21.7173 25.5233C21.4878 25.7607 21.3595 26.0779 21.3595 26.4081C21.3595 26.7383 21.4878 27.0556 21.7173 27.293C21.9468 27.5304 22.2595 27.6701 22.5896 27.6813Z" fill="#2E3ECD"/>
<path d="M23.862 23.8626H13.4371L14.1685 20.6813H13.0448C12.9813 20.6795 12.9183 20.6695 12.8574 20.6514L11.8388 24.2148C11.7903 24.3119 11.7675 24.4197 11.7724 24.528C11.7773 24.6364 11.8098 24.7417 11.8669 24.834C11.9239 24.9262 12.0036 25.0024 12.0984 25.0552C12.1931 25.108 12.2998 25.1357 12.4083 25.1357H23.8635C24.0323 25.1357 24.1942 25.0687 24.3136 24.9493C24.433 24.8299 24.5 24.668 24.5 24.4992C24.5 24.3304 24.433 24.1684 24.3136 24.0491C24.1942 23.9297 24.0323 23.8626 23.8635 23.8626" fill="#2E3ECD"/>
<path d="M27.5449 11.3809C27.4856 11.3046 27.4096 11.2428 27.3228 11.2004C27.236 11.1579 27.1406 11.1358 27.0439 11.1359H11.1343C11.1197 11.1363 11.1051 11.1378 11.0905 11.1402L10.478 9.07232C10.4438 8.93469 10.3644 8.8125 10.2526 8.72527C10.1408 8.63803 10.003 8.59078 9.86114 8.59107H7.95218C7.78718 8.59665 7.6308 8.66613 7.51605 8.78483C7.4013 8.90353 7.33716 9.06217 7.33716 9.22726C7.33716 9.39236 7.4013 9.551 7.51605 9.6697C7.6308 9.7884 7.78718 9.85788 7.95218 9.86346H9.36385L12.4256 20.1994C12.4597 20.3373 12.5392 20.4597 12.6511 20.5471C12.7631 20.6345 12.9012 20.6818 13.0432 20.6814H24.4984C24.6307 20.6794 24.7593 20.6375 24.8674 20.5611C24.9905 20.4736 25.0784 20.3451 25.1153 20.1987L27.6601 11.9263C27.6836 11.8325 27.6854 11.7347 27.6653 11.6401C27.6452 11.5456 27.6045 11.4569 27.5449 11.3809ZM23.5432 12.409V14.3179H21.6343V12.409H23.5432ZM24.1791 18.9372V17.5H24.6311L24.1791 18.9372ZM24.1791 16.8635V14.9545H25.4288L24.8302 16.8635H24.1791ZM23.5432 16.8635H21.6343V14.9545H23.544L23.5432 16.8635ZM12.2207 14.9545H13.3611V16.8635H12.7858L12.2207 14.9545ZM13.9977 14.9545H15.9067V16.8635H13.9977V14.9545ZM16.5425 14.9545H18.4522V16.8635H16.5432L16.5425 14.9545ZM19.0887 14.9545H20.9977V16.8635H19.0895L19.0887 14.9545ZM20.9977 12.409V14.3179H19.0895V12.409H20.9977ZM18.4522 12.409V14.3179H16.5432V12.409H18.4522ZM15.9067 12.409V14.3179H13.9977V12.409H15.9067ZM13.3611 12.409V14.3179H12.0319L11.4668 12.409H13.3611ZM12.9747 17.4993H13.3611V18.8052L12.9747 17.4993ZM13.9977 19.4083V17.5H15.9067V19.4097L13.9977 19.4083ZM16.5425 19.4083V17.5H18.4522V19.4097L16.5425 19.4083ZM19.0887 19.4083V17.5H20.9977V19.4097L19.0887 19.4083ZM21.6335 19.4083V17.5H23.5432V19.4097L21.6335 19.4083ZM25.6294 14.3179H24.1791V12.409H26.228L25.6294 14.3179Z" fill="#2E3ECD"/>
<path d="M8.58966 10.5C8.75937 10.504 8.92817 10.4741 9.08614 10.412C9.24411 10.3499 9.38806 10.2568 9.50953 10.1382C9.63099 10.0196 9.72751 9.8779 9.79341 9.72146C9.8593 9.56502 9.89325 9.39698 9.89325 9.22723C9.89325 9.05747 9.8593 8.88943 9.79341 8.73299C9.72751 8.57655 9.63099 8.43487 9.50953 8.31628C9.38806 8.19769 9.24411 8.10459 9.08614 8.04246C8.92817 7.98032 8.75937 7.9504 8.58966 7.95447C8.25966 7.96564 7.9469 8.10459 7.7174 8.34199C7.48791 8.57939 7.35962 8.89667 7.35962 9.22686C7.35962 9.55706 7.48791 9.87433 7.7174 10.1117C7.9469 10.3491 8.25966 10.4888 8.58966 10.5Z" fill="#6BAFFF"/>
</g>
<defs>
<clipPath id="clip0_1_450">
<rect width="35" height="35" fill="white"/>
</clipPath>
</defs>
</svg>
