<svg width="19" height="22" viewBox="0 0 19 22" fill="none" xmlns="http://www.w3.org/2000/svg">
<path d="M16.7917 5.25008H14.7083C14.7083 2.33341 12.4167 0.041748 9.5 0.041748C6.58333 0.041748 4.29167 2.33341 4.29167 5.25008H2.20833C1.0625 5.25008 0.125 6.18758 0.125 7.33341V19.8334C0.125 20.9792 1.0625 21.9167 2.20833 21.9167H16.7917C17.9375 21.9167 18.875 20.9792 18.875 19.8334V7.33341C18.875 6.18758 17.9375 5.25008 16.7917 5.25008ZM9.5 2.12508C11.2708 2.12508 12.625 3.47925 12.625 5.25008H6.375C6.375 3.47925 7.72917 2.12508 9.5 2.12508ZM16.7917 19.8334H2.20833V7.33341H9.5H16.7917V19.8334ZM9.5 11.5001C7.72917 11.5001 6.375 10.1459 6.375 8.37508H4.29167C4.29167 11.2917 6.58333 13.5834 9.5 13.5834C12.4167 13.5834 14.7083 11.2917 14.7083 8.37508H12.625C12.625 10.1459 11.2708 11.5001 9.5 11.5001Z" fill="#FF69B4"/>
</svg>
