<svg width="23" height="13" viewBox="0 0 23 13" fill="none" xmlns="http://www.w3.org/2000/svg">
<path d="M15.6667 0.25L18.7917 4.41667H20.8751C22.0313 4.41667 22.9584 5.34375 22.9584 6.5V9.625H20.8751C20.8751 10.4538 20.5458 11.2487 19.9598 11.8347C19.3737 12.4208 18.5789 12.75 17.7501 12.75C16.9213 12.75 16.1264 12.4208 15.5404 11.8347C14.9543 11.2487 14.6251 10.4538 14.6251 9.625H8.37508C8.37508 10.4538 8.04584 11.2487 7.45979 11.8347C6.87374 12.4208 6.07888 12.75 5.25008 12.75C4.42128 12.75 3.62642 12.4208 3.04037 11.8347C2.45432 11.2487 2.12508 10.4538 2.12508 9.625H0.041748V6.5C0.041748 5.34375 0.968831 4.41667 2.12508 4.41667L5.25008 0.25H15.6667ZM9.93758 1.8125H6.03133L4.06258 4.41667H9.93758V1.8125ZM11.5001 1.8125V4.41667H16.8542L14.8855 1.8125H11.5001ZM5.25008 8.0625C4.83568 8.0625 4.43825 8.22712 4.14523 8.52015C3.8522 8.81317 3.68758 9.2106 3.68758 9.625C3.68758 10.0394 3.8522 10.4368 4.14523 10.7299C4.43825 11.0229 4.83568 11.1875 5.25008 11.1875C5.66448 11.1875 6.06191 11.0229 6.35494 10.7299C6.64796 10.4368 6.81258 10.0394 6.81258 9.625C6.81258 9.2106 6.64796 8.81317 6.35494 8.52015C6.06191 8.22712 5.66448 8.0625 5.25008 8.0625ZM17.7501 8.0625C17.3357 8.0625 16.9383 8.22712 16.6452 8.52015C16.3522 8.81317 16.1876 9.2106 16.1876 9.625C16.1876 10.0394 16.3522 10.4368 16.6452 10.7299C16.9383 11.0229 17.3357 11.1875 17.7501 11.1875C18.1645 11.1875 18.5619 11.0229 18.8549 10.7299C19.148 10.4368 19.3126 10.0394 19.3126 9.625C19.3126 9.2106 19.148 8.81317 18.8549 8.52015C18.5619 8.22712 18.1645 8.0625 17.7501 8.0625Z" fill="#9562EA"/>
</svg>
